<?xml version="1.0" encoding="UTF-8" standalone="no"?>
<svg
   width="377.28928"
   zoomAndPan="magnify"
   viewBox="0 0 282.96696 77.999998"
   height="104"
   preserveAspectRatio="xMidYMid"
   version="1.0"
   id="svg22"
   sodipodi:docname="seiswap.svg"
   inkscape:version="1.3.2 (091e20ef0f, 2023-11-25, custom)"
   xmlns:inkscape="http://www.inkscape.org/namespaces/inkscape"
   xmlns:sodipodi="http://sodipodi.sourceforge.net/DTD/sodipodi-0.dtd"
   xmlns="http://www.w3.org/2000/svg"
   xmlns:svg="http://www.w3.org/2000/svg">
  <sodipodi:namedview
     id="namedview22"
     pagecolor="#ffffff"
     bordercolor="#666666"
     borderopacity="1.0"
     inkscape:showpageshadow="2"
     inkscape:pageopacity="0.0"
     inkscape:pagecheckerboard="0"
     inkscape:deskcolor="#d1d1d1"
     inkscape:zoom="2.306"
     inkscape:cx="188.63833"
     inkscape:cy="57.458803"
     inkscape:window-width="2514"
     inkscape:window-height="1359"
     inkscape:window-x="20"
     inkscape:window-y="55"
     inkscape:window-maximized="1"
     inkscape:current-layer="svg22" />
  <defs
     id="defs1">
    <g
       id="g1" />
  </defs>
  <g
     fill="#ff914d"
     fill-opacity="1"
     id="g4"
     transform="translate(-45.861076,-144.33844)">
    <g
       transform="translate(44.220451,203.72906)"
       id="g3">
      <g
         id="g2">
        <path
           d="m 20.25,-37.78125 c 2.101562,0 4.179688,0.242188 6.234375,0.71875 2.050781,0.46875 3.578125,0.945312 4.578125,1.421875 l 1.5,0.71875 -4.15625,8.296875 c -2.867188,-1.519531 -5.585938,-2.28125 -8.15625,-2.28125 -1.429688,0 -2.445312,0.15625 -3.046875,0.46875 -0.59375,0.304688 -0.890625,0.886719 -0.890625,1.75 0,0.1875 0.01953,0.382812 0.0625,0.578125 0.05078,0.1875 0.148438,0.367187 0.296875,0.53125 0.144531,0.167969 0.273437,0.3125 0.390625,0.4375 0.125,0.117187 0.328125,0.246094 0.609375,0.390625 0.289063,0.136719 0.519531,0.242188 0.6875,0.3125 0.164063,0.07422 0.4375,0.183594 0.8125,0.328125 0.382813,0.136719 0.671875,0.242187 0.859375,0.3125 0.195312,0.07422 0.519531,0.183594 0.96875,0.328125 0.457031,0.136719 0.804688,0.230469 1.046875,0.28125 1.476563,0.429688 2.765625,0.90625 3.859375,1.4375 1.09375,0.523438 2.25,1.234375 3.46875,2.140625 1.21875,0.90625 2.160156,2.054687 2.828125,3.4375 0.664063,1.386719 1,2.960937 1,4.71875 0,8.355469 -5.796875,12.53125 -17.390625,12.53125 -2.625,0 -5.121094,-0.40625 -7.484375,-1.21875 -2.355469,-0.8125 -4.058594,-1.625 -5.109375,-2.4375 l -1.578125,-1.28125 5.15625,-8.671875 c 0.382813,0.34375 0.882813,0.746094 1.5,1.203125 0.625,0.449219 1.742187,1.070313 3.359375,1.859375 1.625,0.78125 3.035156,1.171875 4.234375,1.171875 2.625,0 3.9375,-0.882813 3.9375,-2.65625 0,-0.8125 -0.339844,-1.441406 -1.015625,-1.890625 -0.667969,-0.457031 -1.796875,-0.972656 -3.390625,-1.546875 -1.59375,-0.570313 -2.84375,-1.09375 -3.75,-1.5625 C 9.378906,-17.148438 7.5625,-18.5 6.21875,-20 c -1.335938,-1.5 -2,-3.492188 -2,-5.984375 0,-3.71875 1.441406,-6.613281 4.328125,-8.6875 2.882813,-2.070313 6.785156,-3.109375 11.703125,-3.109375 z m 0,0"
           id="path1" />
      </g>
    </g>
  </g>
  <g
     fill="#ff914d"
     fill-opacity="1"
     id="g7"
     transform="translate(-45.861076,-144.33844)">
    <g
       transform="translate(76.556328,203.72906)"
       id="g6">
      <g
         id="g5">
        <path
           d="m 41.4375,-16.609375 h -26.625 c 0,2.585937 0.832031,4.496094 2.5,5.734375 1.675781,1.242188 3.488281,1.859375 5.4375,1.859375 2.050781,0 3.671875,-0.269531 4.859375,-0.8125 1.195313,-0.550781 2.5625,-1.640625 4.09375,-3.265625 l 9.15625,4.578125 c -3.8125,6.398437 -10.15625,9.59375 -19.03125,9.59375 -5.53125,0 -10.28125,-1.894531 -14.25,-5.6875 -3.960937,-3.800781 -5.9375,-8.367187 -5.9375,-13.703125 0,-5.34375 1.976563,-9.921875 5.9375,-13.734375 3.96875,-3.820313 8.71875,-5.734375 14.25,-5.734375 5.820313,0 10.554687,1.683594 14.203125,5.046875 3.644531,3.367187 5.46875,8.171875 5.46875,14.421875 0,0.855469 -0.02344,1.421875 -0.0625,1.703125 z m -26.265625,-7 H 29.125 c -0.28125,-1.914063 -1.03125,-3.382813 -2.25,-4.40625 -1.21875,-1.03125 -2.78125,-1.546875 -4.6875,-1.546875 -2.105469,0 -3.777344,0.554688 -5.015625,1.65625 -1.242187,1.09375 -1.90625,2.527344 -2,4.296875 z m 0,0"
           id="path4" />
      </g>
    </g>
  </g>
  <g
     fill="#ff914d"
     fill-opacity="1"
     id="g10"
     transform="translate(-45.861076,-144.33844)">
    <g
       transform="translate(116.8333,203.72906)"
       id="g9">
      <g
         id="g8">
        <path
           d="m 5.515625,-57.171875 c 1.476563,-1.476563 3.242187,-2.21875 5.296875,-2.21875 2.050781,0 3.8125,0.742187 5.28125,2.21875 1.476562,1.480469 2.21875,3.246094 2.21875,5.296875 0,2.042969 -0.742188,3.804688 -2.21875,5.28125 -1.46875,1.480469 -3.230469,2.21875 -5.28125,2.21875 -2.054688,0 -3.820312,-0.738281 -5.296875,-2.21875 -1.480469,-1.476562 -2.21875,-3.238281 -2.21875,-5.28125 0,-2.050781 0.738281,-3.816406 2.21875,-5.296875 z M 4.296875,-36.71875 V 0 h 12.65625 v -36.71875 z m 0,0"
           id="path7" />
      </g>
    </g>
  </g>
  <g
     fill="#e4e2dd"
     fill-opacity="1"
     id="g13"
     transform="translate(-45.861076,-144.33844)">
    <g
       transform="translate(135.58023,203.72906)"
       id="g12">
      <g
         id="g11">
        <path
           d="m 20.25,-37.78125 c 2.101562,0 4.179688,0.242188 6.234375,0.71875 2.050781,0.46875 3.578125,0.945312 4.578125,1.421875 l 1.5,0.71875 -4.15625,8.296875 c -2.867188,-1.519531 -5.585938,-2.28125 -8.15625,-2.28125 -1.429688,0 -2.445312,0.15625 -3.046875,0.46875 -0.59375,0.304688 -0.890625,0.886719 -0.890625,1.75 0,0.1875 0.01953,0.382812 0.0625,0.578125 0.05078,0.1875 0.148438,0.367187 0.296875,0.53125 0.144531,0.167969 0.273437,0.3125 0.390625,0.4375 0.125,0.117187 0.328125,0.246094 0.609375,0.390625 0.289063,0.136719 0.519531,0.242188 0.6875,0.3125 0.164063,0.07422 0.4375,0.183594 0.8125,0.328125 0.382813,0.136719 0.671875,0.242187 0.859375,0.3125 0.195312,0.07422 0.519531,0.183594 0.96875,0.328125 0.457031,0.136719 0.804688,0.230469 1.046875,0.28125 1.476563,0.429688 2.765625,0.90625 3.859375,1.4375 1.09375,0.523438 2.25,1.234375 3.46875,2.140625 1.21875,0.90625 2.160156,2.054687 2.828125,3.4375 0.664063,1.386719 1,2.960937 1,4.71875 0,8.355469 -5.796875,12.53125 -17.390625,12.53125 -2.625,0 -5.121094,-0.40625 -7.484375,-1.21875 -2.355469,-0.8125 -4.058594,-1.625 -5.109375,-2.4375 l -1.578125,-1.28125 5.15625,-8.671875 c 0.382813,0.34375 0.882813,0.746094 1.5,1.203125 0.625,0.449219 1.742187,1.070313 3.359375,1.859375 1.625,0.78125 3.035156,1.171875 4.234375,1.171875 2.625,0 3.9375,-0.882813 3.9375,-2.65625 0,-0.8125 -0.339844,-1.441406 -1.015625,-1.890625 -0.667969,-0.457031 -1.796875,-0.972656 -3.390625,-1.546875 -1.59375,-0.570313 -2.84375,-1.09375 -3.75,-1.5625 C 9.378906,-17.148438 7.5625,-18.5 6.21875,-20 c -1.335938,-1.5 -2,-3.492188 -2,-5.984375 0,-3.71875 1.441406,-6.613281 4.328125,-8.6875 2.882813,-2.070313 6.785156,-3.109375 11.703125,-3.109375 z m 0,0"
           id="path10" />
      </g>
    </g>
  </g>
  <g
     fill="#e4e2dd"
     fill-opacity="1"
     id="g16"
     transform="translate(-45.861076,-144.33844)">
    <g
       transform="translate(167.91611,203.72906)"
       id="g15">
      <g
         id="g14">
        <path
           d="M 26.84375,0 H 18.25 L -1.4375,-36.71875 h 14.609375 l 8.9375,19.828125 8.8125,-19.828125 h 8.71875 l 8.8125,19.828125 8.9375,-19.828125 h 14.59375 L 52.3125,0 h -8.59375 l -8.4375,-18.96875 z m 0,0"
           id="path13" />
      </g>
    </g>
  </g>
  <g
     fill="#e4e2dd"
     fill-opacity="1"
     id="g19"
     transform="translate(-45.861076,-144.33844)">
    <g
       transform="translate(235.59338,203.72906)"
       id="g18">
      <g
         id="g17">
        <path
           d="m 6.796875,-4.53125 c -3.4375,-3.75 -5.15625,-8.34375 -5.15625,-13.78125 0,-5.445312 1.71875,-10.050781 5.15625,-13.8125 3.4375,-3.769531 7.800781,-5.65625 13.09375,-5.65625 4.863281,0 8.875,1.527344 12.03125,4.578125 v -3.515625 h 12.65625 V 0 H 32.0625 v -4.15625 h -0.140625 c -3.15625,3.492188 -7.167969,5.234375 -12.03125,5.234375 -5.292969,0 -9.65625,-1.867187 -13.09375,-5.609375 z M 17.5625,-24.546875 c -1.648438,1.625 -2.46875,3.703125 -2.46875,6.234375 0,2.523438 0.785156,4.585938 2.359375,6.1875 1.582031,1.59375 3.660156,2.390625 6.234375,2.390625 2.476562,0 4.515625,-0.804687 6.109375,-2.421875 1.601563,-1.625 2.40625,-3.675781 2.40625,-6.15625 0,-2.53125 -0.824219,-4.609375 -2.46875,-6.234375 -1.648437,-1.625 -3.664063,-2.4375 -6.046875,-2.4375 -2.4375,0 -4.480469,0.8125 -6.125,2.4375 z m 0,0"
           id="path16" />
      </g>
    </g>
  </g>
  <g
     fill="#e4e2dd"
     fill-opacity="1"
     id="g22"
     transform="translate(-45.861076,-144.33844)">
    <g
       transform="translate(281.59366,203.72906)"
       id="g21">
      <g
         id="g20">
        <path
           d="m 42.078125,-32.15625 c 3.4375,3.742188 5.15625,8.328125 5.15625,13.765625 0,5.4375 -1.71875,10.042969 -5.15625,13.8125 -3.4375,3.773437 -7.804687,5.65625 -13.09375,5.65625 -4.867187,0 -8.875,-1.523437 -12.03125,-4.578125 V 18.609375 H 4.296875 V -36.71875 H 16.8125 v 4.15625 h 0.140625 c 3.15625,-3.476562 7.164063,-5.21875 12.03125,-5.21875 5.289063,0 9.65625,1.875 13.09375,5.625 z m -10.765625,20 c 1.644531,-1.625 2.46875,-3.703125 2.46875,-6.234375 0,-2.53125 -0.792969,-4.59375 -2.375,-6.1875 -1.574219,-1.601563 -3.648438,-2.40625 -6.21875,-2.40625 -2.480469,0 -4.523438,0.8125 -6.125,2.4375 -1.59375,1.625 -2.390625,3.679687 -2.390625,6.15625 0,2.53125 0.820313,4.609375 2.46875,6.234375 1.644531,1.617188 3.660156,2.421875 6.046875,2.421875 2.4375,0 4.476562,-0.804687 6.125,-2.421875 z m 0,0"
           id="path19" />
      </g>
    </g>
  </g>
</svg>
