<?xml version="1.0" encoding="UTF-8" standalone="no"?>
<svg
   width="406.95029"
   zoomAndPan="magnify"
   viewBox="0 0 305.21272 38.167968"
   height="50.890625"
   preserveAspectRatio="xMidYMid"
   version="1.0"
   id="svg28"
   sodipodi:docname="TaikoSwap.svg"
   inkscape:version="1.3.2 (091e20ef0f, 2023-11-25, custom)"
   xmlns:inkscape="http://www.inkscape.org/namespaces/inkscape"
   xmlns:sodipodi="http://sodipodi.sourceforge.net/DTD/sodipodi-0.dtd"
   xmlns="http://www.w3.org/2000/svg"
   xmlns:svg="http://www.w3.org/2000/svg">
  <sodipodi:namedview
     id="namedview28"
     pagecolor="#ffffff"
     bordercolor="#666666"
     borderopacity="1.0"
     inkscape:showpageshadow="2"
     inkscape:pageopacity="0.0"
     inkscape:pagecheckerboard="0"
     inkscape:deskcolor="#d1d1d1"
     inkscape:zoom="2.306"
     inkscape:cx="203.59931"
     inkscape:cy="32.307025"
     inkscape:window-width="2514"
     inkscape:window-height="1359"
     inkscape:window-x="20"
     inkscape:window-y="55"
     inkscape:window-maximized="1"
     inkscape:current-layer="svg28" />
  <defs
     id="defs1">
    <g
       id="g1" />
  </defs>
  <g
     fill="#e81899"
     fill-opacity="1"
     id="g4"
     transform="translate(-34.757469,-163.12734)">
    <g
       transform="translate(33.659813,200.45937)"
       id="g3">
      <g
         id="g2">
        <path
           d="M 29.34375,-36.550781 H 1.097656 V -29.1875 H 11.277344 V 0 h 7.886718 V -29.1875 H 29.34375 Z m 0,0"
           id="path1" />
      </g>
    </g>
  </g>
  <g
     fill="#e81899"
     fill-opacity="1"
     id="g7"
     transform="translate(-34.757469,-163.12734)">
    <g
       transform="translate(62.843347,200.45937)"
       id="g6">
      <g
         id="g5">
        <path
           d="m 28.40625,0 h 8.613281 L 22.242188,-36.550781 H 14.777344 L 0.417969,0 h 8.40625 l 2.507812,-6.890625 h 14.515625 z m -9.816406,-26.890625 4.800781,13.105469 h -9.605469 z m 0,0"
           id="path4" />
      </g>
    </g>
  </g>
  <g
     fill="#e81899"
     fill-opacity="1"
     id="g10"
     transform="translate(-34.757469,-163.12734)">
    <g
       transform="translate(99.02263,200.45937)"
       id="g9">
      <g
         id="g8">
        <path
           d="M 4.175781,0 H 12.0625 V -36.550781 H 4.175781 Z m 0,0"
           id="path7" />
      </g>
    </g>
  </g>
  <g
     fill="#e81899"
     fill-opacity="1"
     id="g13"
     transform="translate(-34.757469,-163.12734)">
    <g
       transform="translate(114.00586,200.45937)"
       id="g12">
      <g
         id="g11">
        <path
           d="M 34.617188,0 20.832031,-19.007812 33.261719,-36.550781 H 24.070312 L 12.0625,-19.632812 V -36.550781 H 4.175781 V 0 H 12.0625 V -17.804688 L 24.957031,0 Z m 0,0"
           id="path10" />
      </g>
    </g>
  </g>
  <g
     fill="#e81899"
     fill-opacity="1"
     id="g16"
     transform="translate(-34.757469,-163.12734)">
    <g
       transform="translate(146.9483,200.45937)"
       id="g15">
      <g
         id="g14">
        <path
           d="m 21.511719,0.835938 c 11.121093,0 19.425781,-8.199219 19.425781,-19.109376 0,-10.863281 -8.304688,-19.058593 -19.425781,-19.058593 -11.171875,0 -19.527344,8.25 -19.527344,19.058593 0,10.859376 8.355469,19.109376 19.527344,19.109376 z m 0,-7.46875 c -6.527344,0 -11.488281,-5.0625 -11.488281,-11.640626 0,-6.582031 4.960937,-11.59375 11.488281,-11.59375 6.527343,0 11.382812,4.960938 11.382812,11.59375 0,6.628907 -4.855469,11.640626 -11.382812,11.640626 z m 0,0"
           id="path13" />
      </g>
    </g>
  </g>
  <g
     fill="#ffffff"
     fill-opacity="1"
     id="g19"
     transform="translate(-34.757469,-163.12734)">
    <g
       transform="translate(188.61684,200.45937)"
       id="g18">
      <g
         id="g17">
        <path
           d="m 16.292969,0.730469 c 7.570312,0 13.835937,-3.8125 13.835937,-11.695313 0,-8.199218 -6.996094,-9.921875 -12.53125,-11.332031 -3.917968,-0.9375 -7.050781,-1.722656 -7.050781,-4.28125 0,-2.402344 2.558594,-3.496094 5.117187,-3.496094 2.976563,0 5.585938,1.460938 5.585938,4.644531 h 7.78125 c 0,-7.308593 -4.75,-11.800781 -13.15625,-11.800781 -8.09375,0 -13.265625,3.96875 -13.265625,10.964844 0,7.886719 6.683594,9.503906 12.21875,10.863281 3.96875,0.886719 7.3125,1.667969 7.3125,4.542969 0,2.714844 -2.925781,4.28125 -5.902344,4.28125 -3.238281,0 -6.160156,-1.722656 -6.160156,-5.222656 H 2.089844 c 0,7.832031 5.792968,12.53125 14.203125,12.53125 z m 0,0"
           id="path16" />
      </g>
    </g>
  </g>
  <g
     fill="#ffffff"
     fill-opacity="1"
     id="g22"
     transform="translate(-34.757469,-163.12734)">
    <g
       transform="translate(219.62763,200.45937)"
       id="g21">
      <g
         id="g20">
        <path
           d="m 45.324219,-36.550781 -7.050781,24.28125 -9.816407,-23.863281 H 25.792969 L 16.1875,-12.21875 8.980469,-36.550781 H 0.625 L 12.113281,0 h 7.050781 L 27.097656,-20.46875 35.246094,0 h 7.046875 l 11.28125,-36.550781 z m 0,0"
           id="path19" />
      </g>
    </g>
  </g>
  <g
     fill="#ffffff"
     fill-opacity="1"
     id="g25"
     transform="translate(-34.757469,-163.12734)">
    <g
       transform="translate(272.6698,200.45937)"
       id="g24">
      <g
         id="g23">
        <path
           d="m 28.40625,0 h 8.613281 L 22.242188,-36.550781 H 14.777344 L 0.417969,0 h 8.40625 l 2.507812,-6.890625 h 14.515625 z m -9.816406,-26.890625 4.800781,13.105469 h -9.605469 z m 0,0"
           id="path22" />
      </g>
    </g>
  </g>
  <g
     fill="#ffffff"
     fill-opacity="1"
     id="g28"
     transform="translate(-34.757469,-163.12734)">
    <g
       transform="translate(308.84908,200.45937)"
       id="g27">
      <g
         id="g26">
        <path
           d="M 18.222656,-36.550781 H 4.175781 V 0 H 12.0625 v -11.382812 h 6.160156 c 7.363282,0 12.898438,-5.378907 12.898438,-12.582032 0,-7.207031 -5.589844,-12.585937 -12.898438,-12.585937 z m -0.363281,17.859375 H 12.0625 V -29.1875 h 5.796875 c 3.132813,0 5.273437,2.191406 5.273437,5.222656 0,3.027344 -2.140624,5.273438 -5.273437,5.273438 z m 0,0"
           id="path25" />
      </g>
    </g>
  </g>
</svg>
