<svg xmlns="http://www.w3.org/2000/svg" version="1.1" style="" viewBox="37.81 34.28 392.62 38.89"><path fill="#ffffff" d="M55.745,53.805l13.09-19.36l-4.18,0l-11,16.5l-11.66-16.5l-3.52,0l13.09,19.36l-13.75,19.25l4.18,0l11.66-16.5l11,16.5l3.52,0z M77.5712,73.11l26.895,0l0-2.805l-23.485,0l0-35.805l-3.41,0l0,38.61z M125.2474,34.28q-6.16,0-10.34,4.455q-4.125,4.4-4.125,10.725l0,23.54l3.465,0l0-17.27l22.11,0l0,17.27l3.465,0l0-23.54q0-6.325-4.125-10.725q-4.29-4.455-10.45-4.455z M136.3574,52.32l-22.11,0l0-2.86q0-4.73,3.19-8.195q3.245-3.52,7.81-3.52t7.92,3.52q3.19,3.465,3.19,8.195l0,2.86z M177.3786,34.5l-3.41,0l0,4.07q0,5.06-3.52,8.47q-3.465,3.3-8.25,3.3q-5.115,0-8.415-3.3t-3.3-8.47l0-4.07l-3.41,0l0,4.07q0,6.16,3.74,10.45q3.685,4.345,9.35,4.73l0,19.305l3.465,0l0-19.305q5.775-0.44,9.735-4.73q4.015-4.29,4.015-10.45l0-4.07z M187.8748,62.44q0-2.64,1.87-4.785q1.87-2.255,4.51-2.255l0.715,0l10.285,0l0-3.41l-10.285,0l-0.715,0q-2.805-0.55-4.5925-2.42t-1.7875-4.455q0-3.245,1.8975-5.1425t5.1975-1.8975l18.7,0l0-3.465l-18.7,0q-4.235,0-7.37,3.135q-3.135,3.025-3.135,7.37q0,2.75,1.045,5.005t3.08,3.245q-2.035,1.485-3.08,3.905t-1.045,5.17q0,4.29,3.135,7.315q3.19,3.19,7.37,3.19l18.7,0l0-3.63l-18.7,0q-3.3,0-5.1975-1.87t-1.8975-5.005z M237.366,53.695l4.125,0q4.18,0,6.93-2.75t2.75-6.93q0-3.685-2.75-6.6q-2.915-3.025-6.93-3.025l-17.215,0l-3.41,0l0,38.61l3.41,0l0-19.305l8.965,0l11.715,19.305l4.125,0z M224.276,50.285l0-12.43l17.215,0q2.53,0,4.455,1.815q1.815,1.815,1.815,4.345q0,2.64-1.815,4.455q-1.925,1.815-4.455,1.815l-17.215,0z M268.1022,38.515l20.735,0l0-4.18l-20.735,0q-4.07,0-6.82,3.19q-2.805,3.245-2.805,7.865q0,4.18,2.805,7.26q2.75,3.135,6.82,3.135l5.5,0l5.61,0q2.475,0,4.4,2.09q1.815,2.2,1.815,4.785q0,3.08-1.7875,5.005t-4.4275,1.925l-20.735,0l0,3.41l20.735,0q4.125,0,6.875-2.86t2.75-7.48q0-4.18-2.75-7.26q-2.805-3.08-6.875-3.08l-5.61,0l-5.5,0q-2.53,0-4.345-2.2q-1.87-2.035-1.87-4.73q0-3.08,1.7875-4.9775t4.4275-1.8975z M353.9484,34.5l-3.465,0l0,23.375q0,4.62-3.52,8.14t-8.14,3.52t-8.14-3.52t-3.52-8.14l0-23.375l-3.465,0l0,23.375q0,4.62-3.52,8.14q-3.63,3.52-8.195,3.52q-4.62,0-8.14-3.52t-3.52-8.14l0-23.375l-3.465,0l0,23.375q0,6.105,4.51,10.615t10.615,4.51q4.18,0,7.865-2.31q3.63-2.255,5.225-5.885q1.98,3.52,5.83,5.885q3.74,2.31,7.92,2.31q6.16,0,10.67-4.51q4.455-4.455,4.455-10.615l0-23.375z M376.8746,34.28q-6.16,0-10.34,4.455q-4.125,4.4-4.125,10.725l0,23.54l3.465,0l0-17.27l22.11,0l0,17.27l3.465,0l0-23.54q0-6.325-4.125-10.725q-4.29-4.455-10.45-4.455z M387.9846,52.32l-22.11,0l0-2.86q0-4.73,3.19-8.195q3.245-3.52,7.81-3.52t7.92,3.52q3.19,3.465,3.19,8.195l0,2.86z M420.7558,34.5l-17.27,0l-3.41,0l0,38.665l3.41,0l0-19.36l17.27,0q4.18,0,6.93-2.75t2.75-6.875q0-3.74-2.75-6.655q-2.915-3.025-6.93-3.025z M420.7558,50.395l-17.27,0l0-12.485l17.27,0q2.53,0,4.455,1.815q1.815,1.925,1.815,4.455q0,2.585-1.815,4.4q-1.925,1.815-4.455,1.815z"/><path fill="#" d=""/></svg>